<svg width="470" height="342" xmlns="http://www.w3.org/2000/svg" fill="none">

 <g>
  <title>Layer 1</title>
  <path id="svg_1" fill="#3F3D56" d="m230,290c56.333,0 102,-3.134 102,-7c0,-3.866 -45.667,-7 -102,-7c-56.333,0 -102,3.134 -102,7c0,3.866 45.667,7 102,7z"/>
  <path id="svg_2" fill="black" d="m231,288c48.049,0 87,-2.239 87,-5c0,-2.761 -38.951,-5 -87,-5c-48.049,0 -87,2.239 -87,5c0,2.761 38.951,5 87,5z" opacity="0.1"/>
  <path id="svg_3" fill="#00cc66" d="m182.782,79l-78.782,75l78.782,75l17.726,-17.088l-59.578,-57.438l60.07,-57.9113l-18.218,-17.5627z"/>
  <path id="svg_4" fill="#00cc66" d="m287.03,85l77.97,74.5l-77.97,74.5l-17.543,-16.974l58.965,-57.055l-59.452,-57.525l18.03,-17.446z"/>
  <path id="svg_5" fill="white" d="m188.373,242.677c-1.195,0.66 -2.456,1.195 -3.763,1.598c-2.337,0.632 -4.835,0.4 -7.195,0.94c-0.967,0.221 -2.018,0.684 -2.326,1.618c-0.225,0.686 0.02,1.426 0.255,2.109c2.608,7.578 4.18,15.625 8.34,22.49c1.748,2.883 3.918,5.494 6.439,7.746c0.946,0.845 2.017,1.671 3.283,1.804c0.584,0.061 1.173,-0.032 1.709,-0.269c0.536,-0.236 0.999,-0.609 1.343,-1.08c0.344,-0.471 0.557,-1.024 0.616,-1.602c0.06,-0.578 -0.035,-1.162 -0.276,-1.692c-0.373,-0.822 -1.067,-1.458 -1.514,-2.242c-0.485,-0.999 -0.769,-2.081 -0.837,-3.188c-0.411,-3.241 -0.807,-6.629 0.327,-9.697c0.76,-2.057 2.154,-3.811 3.316,-5.676c1.161,-1.864 2.126,-4 1.868,-6.176c-0.177,-1.485 -0.908,-2.844 -1.68,-4.128c-0.774,-1.288 -2.303,-4.747 -3.857,-5.176c-1.614,-0.446 -4.64,1.907 -6.048,2.621z"/>
  <path id="svg_6" fill="white" d="m232.27,269.855c0.025,0.802 -0.083,1.602 -0.319,2.366c-0.509,1.392 -1.771,2.346 -2.422,3.672c-0.907,1.845 -0.496,4.075 0.105,6.05c0.376,1.238 0.87,2.526 1.881,3.291c0.865,0.556 1.848,0.882 2.864,0.951c8.674,1.244 17.485,0.53 26.238,0.791c1.596,0.048 3.285,0.105 4.678,-0.703c1.392,-0.808 2.253,-2.84 1.306,-4.171c-0.851,-1.196 -2.532,-1.185 -3.964,-1.255c-3.728,-0.197 -7.278,-1.712 -10.058,-4.295c-0.548,-0.485 -1.023,-1.052 -1.41,-1.683c-0.298,-0.56 -0.545,-1.147 -0.738,-1.754c-1.227,-3.445 -2.687,-6.796 -4.369,-10.029c-0.47,-0.905 -1.003,-1.847 -1.878,-2.331c-0.641,-0.302 -1.336,-0.459 -2.039,-0.461c-2.182,-0.147 -7.831,-0.917 -9.518,0.842c-1.559,1.625 -0.323,6.656 -0.357,8.719z"/>
  <path id="svg_7" fill="#FBBEBE" d="m245.5,85c8.008,0 14.5,-5.8203 14.5,-13c0,-7.1797 -6.492,-13 -14.5,-13c-8.008,0 -14.5,5.8203 -14.5,13c0,7.1797 6.492,13 14.5,13z"/>
  <path id="svg_8" fill="#FBBEBE" d="m232.998,83.694c-0.774,1.9548 -2.087,3.7907 -3.998,4.8426l18,3.4634c-0.653,-2.478 -0.739,-5.0588 -0.252,-7.5707c0.178,-0.6079 0.215,-1.2452 0.107,-1.8679c-0.338,-1.2318 -1.808,-1.8248 -3.124,-2.1076c-3.285,-0.7064 -6.19,-1.0852 -9.243,-2.4538c-0.933,1.5068 -0.802,3.9567 -1.49,5.694z"/>
  <path id="svg_9" fill="#2F2E41" d="m227.586,84.2558c2.088,-0.879 4.364,-1.3067 6.655,-1.251c2.292,0.0557 4.54,0.5933 6.577,1.5725c2.489,1.2199 4.55,3.0613 6.575,4.878c1.866,1.6746 3.857,3.5921 3.99,6.0009c0.064,1.1669 -0.328,2.3082 -0.526,3.4621c-0.355,2.3867 0.097,4.8167 1.293,6.9537c1.196,2.137 3.077,3.874 5.383,4.972c1.543,2.39 1.861,5.285 1.884,8.072c0.09,10.559 -3.492,21.249 -0.935,31.537c0.601,2.416 1.532,4.755 2.051,7.187c0.672,3.15 0.638,6.389 0.99,9.584c0.381,3.459 1.213,6.862 2.477,10.135c-0.845,1.25 -2.603,1.729 -4.187,1.628c-1.583,-0.101 -3.064,-0.74 -4.477,-1.413c-6.842,-3.256 -13.109,-7.55 -20.196,-10.318c-4.688,-1.831 -9.683,-2.971 -14.231,-5.086c-4.549,-2.114 -8.779,-5.47 -10.169,-10.019c-0.602,-1.967 -0.639,-4.04 -0.672,-6.084c-0.138,-8.612 -0.266,-17.318 1.749,-25.725c1.778,-7.413 5.204,-14.505 5.952,-22.0685c0.243,-2.462 0.248,-5.0976 1.727,-7.1519c2.091,-2.9037 6.605,-3.6557 8.09,-6.8658z"/>
  <path id="svg_10" fill="#2F2E41" d="m236.579,70.5335c0.792,-0.9338 2.318,-1.0611 3.582,-0.7849c1.265,0.2762 2.43,0.8657 3.707,1.0897c0.29,0.0745 0.595,0.0934 0.893,0.0555c0.299,-0.038 0.586,-0.132 0.842,-0.276c0.446,-0.3976 0.713,-0.9313 0.749,-1.4971c0.447,-2.4075 0.552,-4.8569 0.311,-7.2884c-0.067,-0.3411 -0.042,-0.6917 0.073,-1.0221c0.316,-0.6892 1.281,-0.8532 2.068,-1.0743c1.3,-0.3974 2.416,-1.1751 3.173,-2.2104c0.756,-1.0353 1.11,-2.269 1.005,-3.5065c-0.02,-0.5935 -0.295,-1.1565 -0.768,-1.5685c-0.545,-0.4016 -1.307,-0.4263 -2.01,-0.4314c-3.61,-0.0262 -7.22,-0.0254 -10.83,0.0024c-1.336,0.0103 -2.739,0.04 -3.898,0.6427c-0.856,0.4456 -1.493,1.1628 -2.262,1.7241c-2.005,1.464 -4.717,1.7619 -7.157,2.5122c-1.191,0.3068 -2.272,0.8902 -3.136,1.6923c-0.812,0.8386 -1.202,2.0854 -0.692,3.1c0.261,0.4229 0.553,0.8297 0.874,1.2178c1.439,2.0816 0.481,4.7817 0.696,7.2293c0.269,3.0563 5.268,8.0142 8.658,8.7375c5.473,1.1676 2.311,-6.3376 4.122,-8.3439z"/>
  <path id="svg_11" fill="#2F2E41" d="m229.833,218.744c0.377,2.383 0.86,4.773 0.731,7.176c-0.181,3.354 -1.547,6.586 -1.8,9.937c-0.189,2.503 0.248,5.033 -0.145,7.517c-0.251,1.591 -0.837,3.124 -1.2,4.698c-0.574,2.564 -0.558,5.205 0.048,7.764c0.606,2.558 1.789,4.983 3.478,7.127c0.249,0.367 0.602,0.67 1.024,0.878c0.405,0.132 0.838,0.183 1.268,0.148c4.265,-0.077 8.518,-0.419 12.729,-1.024c0.308,-0.011 0.6,-0.125 0.817,-0.319c0.095,-0.129 0.156,-0.275 0.178,-0.427c0.78,-3.553 -1,-7.115 -1.453,-10.712c-0.483,-3.84 0.558,-7.689 1.591,-11.444c0.469,-1.852 1.054,-3.679 1.754,-5.473c0.499,-1.208 1.102,-2.382 1.535,-3.61c0.613,-1.928 0.987,-3.91 1.114,-5.91c0.3,-3.156 0.46,-6.319 0.478,-9.49c0.102,-3.004 -0.181,-6.009 -0.842,-8.957c-0.95,-3.733 -2.895,-7.199 -4.823,-10.623c-1.031,0.219 -1.998,0.626 -2.841,1.195c-2.484,1.425 -5.078,2.693 -7.762,3.797c-1.804,0.741 -5.321,1.268 -6.466,2.813c-1.129,1.524 -0.401,4.634 -0.314,6.315c0.148,2.885 0.448,5.76 0.901,8.624z"/>
  <path id="svg_12" fill="black" d="m229.833,218.744c0.377,2.383 0.86,4.773 0.731,7.176c-0.181,3.354 -1.547,6.586 -1.8,9.937c-0.189,2.503 0.248,5.033 -0.145,7.517c-0.251,1.591 -0.837,3.124 -1.2,4.698c-0.574,2.564 -0.558,5.205 0.048,7.764c0.606,2.558 1.789,4.983 3.478,7.127c0.249,0.367 0.602,0.67 1.024,0.878c0.405,0.132 0.838,0.183 1.268,0.148c4.265,-0.077 8.518,-0.419 12.729,-1.024c0.308,-0.011 0.6,-0.125 0.817,-0.319c0.095,-0.129 0.156,-0.275 0.178,-0.427c0.78,-3.553 -1,-7.115 -1.453,-10.712c-0.483,-3.84 0.558,-7.689 1.591,-11.444c0.469,-1.852 1.054,-3.679 1.754,-5.473c0.499,-1.208 1.102,-2.382 1.535,-3.61c0.613,-1.928 0.987,-3.91 1.114,-5.91c0.3,-3.156 0.46,-6.319 0.478,-9.49c0.102,-3.004 -0.181,-6.009 -0.842,-8.957c-0.95,-3.733 -2.895,-7.199 -4.823,-10.623c-1.031,0.219 -1.998,0.626 -2.841,1.195c-2.484,1.425 -5.078,2.693 -7.762,3.797c-1.804,0.741 -5.321,1.268 -6.466,2.813c-1.129,1.524 -0.401,4.634 -0.314,6.315c0.148,2.885 0.448,5.76 0.901,8.624z" opacity="0.1"/>
  <path id="svg_13" fill="#2F2E41" d="m211.927,165c-1.813,4.811 0.852,10.009 3.167,14.605c5.704,11.324 9.665,23.408 13.605,35.44c0.295,0.901 0.59,1.884 0.261,2.774c-0.284,0.632 -0.745,1.171 -1.329,1.554c-2.717,2.034 -6.176,2.758 -9.412,3.822c-3.128,1.028 -6.123,2.412 -8.926,4.123c-2.345,1.432 -4.541,3.086 -6.734,4.736l-6.979,5.253c-0.452,0.301 -0.847,0.677 -1.167,1.113c-0.673,1.041 -0.397,2.399 -0.062,3.589c0.888,3.148 2.03,6.222 3.417,9.19c0.228,0.651 0.663,1.212 1.239,1.601c1.09,0.577 2.422,-0.188 3.254,-1.09c0.832,-0.902 1.551,-2.024 2.724,-2.411c1.171,-0.387 2.46,0.081 3.684,-0.088c1.978,-0.274 3.291,-2.07 4.717,-3.449c5.827,-5.633 15.554,-5.224 21.964,-10.205c0.926,-0.817 1.907,-1.572 2.936,-2.261c1.083,-0.631 2.312,-0.977 3.436,-1.535c3.419,-1.697 5.569,-5.205 6.72,-8.803c1.152,-3.598 1.48,-7.396 2.308,-11.08c0.427,-1.904 0.99,-3.788 1.181,-5.73c0.122,-1.805 0.082,-3.618 -0.119,-5.417l-2.313,-28.194c-0.188,-2.296 -0.377,-4.594 -0.743,-6.869c-6.868,0.242 -13.731,0.515 -20.604,0.595c-5.468,0.063 -11.037,0.44 -16.225,-1.263z"/>
  <path id="svg_14" fill="#2F2E41" d="m208.674,173.639c0.947,1.688 3.251,1.653 4.838,0.727c1.586,-0.925 2.819,-2.48 4.409,-3.397c2.138,-1.233 4.667,-1.186 7.075,-1.111c3.813,0.119 7.672,0.246 11.34,1.405c3.795,1.198 7.488,3.504 11.411,3.044c0.683,-0.08 1.43,-0.297 1.801,-0.937c0.218,-0.463 0.32,-0.983 0.297,-1.505l0.128,-3.799c0.079,-0.658 -0.016,-1.326 -0.273,-1.925c-0.329,-0.498 -0.78,-0.881 -1.3,-1.103c-5.584,-2.997 -11.952,-3.555 -18.153,-3.79c-3.152,-0.12 -6.305,-0.169 -9.459,-0.148c-2.677,0.018 -5.89,-0.411 -8.493,0.382c-3.493,1.064 -5.393,8.998 -3.621,12.157z"/>
  <path id="svg_15" fill="#00cc66" d="m244.914,87.459c-7.317,-0.0575 -13.947,-4.3429 -21.263,-4.4473c-0.884,-0.0543 -1.77,0.0813 -2.582,0.3953c-1.02,0.4557 -1.69,1.3368 -2.464,2.081c-2.164,2.0787 -5.296,3.1885 -7.519,5.2175c-2.083,1.9024 -3.242,4.7368 -2.42,7.2874c0.823,2.5501 3.928,4.5071 6.837,3.8941c1.172,-3.3664 3.59,-6.2825 6.864,-8.2761c1.703,-0.9694 3.498,-1.8055 5.365,-2.4989c3.288,-1.322 6.965,-2.6692 10.398,-1.6783c1.266,0.4242 2.459,1.0019 3.547,1.7165l5.723,3.4115c-0.667,-2.3341 -1.267,-4.9518 -2.486,-7.1027z"/>
  <path id="svg_16" fill="white" d="m213.23,100.135c-0.977,1.151 0.43,2.817 0.215,4.278c-0.143,0.97 -0.989,1.711 -1.341,2.632c-0.364,0.954 -0.171,2.012 -0.309,3.018c-0.139,0.731 -0.344,1.45 -0.614,2.149c-0.619,2.086 -1.051,4.218 -1.292,6.373l-1.287,9.076c-0.223,1.366 -0.359,2.744 -0.407,4.125c0.065,1.033 -0.008,2.069 -0.218,3.084c-0.285,0.992 -0.916,1.86 -1.34,2.806c-0.424,0.946 -0.621,2.091 -0.048,2.965c-1.92,1.51 -2.491,4.477 -1.148,6.468c0.255,0.31 0.455,0.658 0.591,1.029c0.075,0.519 -0.016,1.047 -0.26,1.518l-1.301,3.274c-0.333,0.839 -0.439,2.115 0.487,2.306c-0.767,0.752 -1.364,1.644 -1.756,2.62c-0.191,0.491 -0.247,1.018 -0.166,1.535c0.082,0.516 0.3,1.005 0.633,1.421c0.324,0.268 0.599,0.584 0.816,0.935c0.127,0.489 0.094,1.003 -0.095,1.473c-0.194,0.716 -0.232,1.461 -0.11,2.19c0.122,0.73 0.401,1.428 0.819,2.051c0.433,0.616 1.047,1.099 1.767,1.39c0.719,0.291 1.512,0.378 2.283,0.25c2.603,-0.554 4.942,-1.43 7.567,-0.975c5.651,0.979 11.32,1.963 16.793,3.613c6.246,1.884 12.295,4.646 18.823,5.226c0.43,0.083 0.877,0.017 1.259,-0.185c0.333,-0.298 0.54,-0.699 0.582,-1.13c0.673,-2.979 1.345,-5.957 2.018,-8.936c0.813,-3.301 1.432,-6.643 1.855,-10.009c0.229,-2.172 0.295,-4.357 0.36,-6.539l0.52,-17.372c0.244,-2.56 -0.118,-5.139 -1.058,-7.552l-2.991,-9.018c-1.707,-5.147 -5.623,-9.711 -7.018,-14.941c-0.882,-3.3104 -1.534,-6.8628 -3.9,-9.4428c-3.374,-3.6782 -9.211,-4.2503 -14.32,-3.6179c-2.307,0.2857 -4.635,0.7787 -6.632,1.9092c-2.308,1.3072 -4.009,3.3664 -5.654,5.3782c-1.356,1.6581 -2.736,2.9911 -4.123,4.6253z"/>
  <path id="svg_17" fill="#FBBEBE" d="m226.473,150.739c0.417,1.786 1.293,3.433 1.829,5.187c0.898,2.939 0.822,6.104 1.718,9.044c0.377,1.234 0.922,2.418 1.192,3.679c0.63,2.94 -0.29,5.982 -1.432,8.765c-1.142,2.784 -2.533,5.528 -2.904,8.511c-0.261,2.101 0.114,4.474 1.745,5.837c1.693,1.416 4.154,1.32 6.359,1.132c0.792,-0.022 1.573,-0.184 2.308,-0.477c1.686,-0.793 2.397,-2.774 2.791,-4.585c1.321,-6.068 0.944,-12.358 0.56,-18.555l-1.004,-16.205c-0.194,-3.12 -0.401,-6.305 -1.369,-9.301c-0.352,-1.089 -0.966,-3.291 -1.968,-3.987c-0.993,-0.689 -3.828,-0.72 -5.057,-0.777c-5.768,-0.269 -5.703,7.724 -4.768,11.732z"/>
  <path id="svg_18" fill="#2F2E41" d="m231.951,93.3351c-1.219,-0.5969 -2.756,-0.3395 -3.934,0.3251c-1.138,0.7285 -2.135,1.6333 -2.947,2.6752c-2.635,3.0069 -5.424,6.4576 -5.033,10.3266c0.146,1.451 0.741,2.825 1.143,4.232c1.767,6.174 -0.186,12.703 0.038,19.09c0.129,3.69 0.988,7.32 1.843,10.925c0.175,0.736 0.455,1.588 1.216,1.836c0.572,0.186 1.189,-0.054 1.755,-0.255c2.109,-0.728 4.374,-0.971 6.604,-0.709c2.23,0.263 4.36,1.024 6.209,2.219c1.414,-0.705 0.884,-2.936 0.567,-4.404c-0.942,-4.364 0.336,-8.866 1.889,-13.074c1.553,-4.209 3.41,-8.412 3.668,-12.857c0.291,-5.036 -1.495,-9.953 -3.257,-14.7198c-0.385,-1.0406 -0.805,-2.1317 -1.697,-2.8506c-0.764,-0.5309 -1.639,-0.9047 -2.568,-1.0968c-1.872,-0.5173 -3.767,-0.816 -5.496,-1.6627z"/>
 </g>
</svg>